<?xml version="1.0" encoding="utf-8"?>
<!-- Generator: Adobe Illustrator 21.0.0, SVG Export Plug-In . SVG Version: 6.00 Build 0)  -->
<svg version="1.1" id="Layer_1" xmlns="http://www.w3.org/2000/svg" xmlns:xlink="http://www.w3.org/1999/xlink" x="0px" y="0px"
	 viewBox="0 0 113.5 70.9" style="enable-background:new 0 0 113.5 70.9;" xml:space="preserve">
<style type="text/css">
	.st0{fill:#0057B8;}
</style>
<g>
	<polygon class="st0" points="0,29.3 18.4,10.9 33.7,26.2 27.6,32.4 24.6,29.3 21.5,32.4 24.6,35.4 21.5,38.5 24.6,41.6 27.6,38.5 
		33.7,44.6 18.4,59.9 0,41.6 6.2,35.4 	"/>
	<g>
		<path d="M39.9,44.6v-8.5H45V37h-4.1v2.8h3.2l-0.2,0.9h-3v3h3.5c0-0.2,0.1-0.5,0.2-0.8c0.4,0.1,0.6,0.2,0.9,0.2
			c-0.1,0.6-0.2,0.9-0.3,1.5C45.2,44.6,39.9,44.6,39.9,44.6z"/>
		<polygon points="47.2,44.6 48,37 47.2,37 47.2,36.1 52.7,36.1 52.7,37 49,37 48.7,39.8 52.7,39.8 52.7,40.7 48.6,40.7 48.3,43.7 
			52.7,43.7 52.7,44.6 		"/>
		<path d="M54.4,43.9l0.5-0.8c0.9,0.6,1.8,0.8,2.6,0.8c1.3,0,1.9-0.6,1.9-1.5c0-0.6-0.5-1.2-1.3-1.4l-1.8-0.5
			c-1.2-0.4-1.6-1.2-1.6-2.2c0-1.3,1.1-2.2,2.7-2.2c1,0,1.8,0.2,2.5,0.6l-0.4,0.8c-0.7-0.3-1.4-0.5-2.1-0.5c-1,0-1.7,0.4-1.7,1.3
			c0,0.6,0.4,1.1,1.1,1.3l1.7,0.5c1.3,0.4,2.1,1.2,2.1,2.3c0,1.5-1.1,2.4-2.9,2.4C56.5,44.8,55.4,44.6,54.4,43.9"/>
		<path d="M67.3,36.1l0.5,1.6L67,37.9L66.8,37h-2.1v7.6h-1V37h-2.1l-0.3,0.9l-0.8-0.3c0.2-0.7,0.3-1,0.5-1.5
			C61,36.1,67.3,36.1,67.3,36.1z"/>
		<rect x="68.9" y="36.1" width="1" height="8.5"/>
		<path d="M79.7,41.6c-0.2,0.1-0.5,0.1-0.6,0.1h-1.6v2.9h-1v-8.5h2.7c1.5,0,2.7,1.2,2.7,2.8c0,0.9-0.5,1.8-1.4,2.4l1.1,2.4h0.7v0.9
			h-0.4c-0.6,0-0.9-0.2-1.1-0.6L79.7,41.6z M77.5,37v3.8H79c1.1,0,2-0.8,2-1.9c0-1-0.9-1.9-2-1.9C79,37,77.5,37,77.5,37z"/>
		<path d="M88,36.1l2.8,8.5h-1l-0.5-1.7h-4l-0.6,1.7h-1l2.8-8.5H88z M85.5,42h3.4l-1.5-5h-0.3L85.5,42z"/>
		<polygon points="92.2,36.1 93.2,36.1 93.2,39.8 97.4,39.8 97.4,36.1 98.4,36.1 98.4,44.6 97.4,44.6 97.4,40.7 93.2,40.7 
			93.2,44.6 92.2,44.6 		"/>
		<path d="M100.6,36.1l2.1,6.6c0.1,0.2,0.2,0.6,0.2,0.9l0,0c0-0.2,0.1-0.6,0.2-0.9c0.5-1.7,1.6-4.8,2.1-6.6h1
			c-1,3.1-1.8,5.5-2.7,8.5h-1.2l-2.8-8.5H100.6z"/>
		<path d="M110.7,36.1l2.8,8.5h-1l-0.5-1.7h-4l-0.5,1.7h-1l2.8-8.5H110.7z M108.2,42h3.4l-1.6-4.9h-0.3L108.2,42z"/>
	</g>
	<g>
		<polygon points="44.7,55.4 43.7,55.4 40.8,50 40.8,50 40.8,56.9 39.9,56.9 39.9,48.4 41,48.4 44.2,54.2 44.2,54.2 47.3,48.4 
			48.5,48.4 48.5,56.9 47.5,56.9 47.5,50 47.5,50 		"/>
		<path d="M56.4,53.5v-5.1h1v5.1c0,2-1.3,3.5-3.4,3.5s-3.4-1.5-3.4-3.5v-5.1h1v5.1c0,1.6,0.9,2.6,2.4,2.6
			C55.4,56.1,56.4,55.1,56.4,53.5"/>
		<path d="M65.5,53.5v-5.1h1v5.1c0,2-1.3,3.5-3.4,3.5c-2.1,0-3.4-1.5-3.4-3.5v-5.1h1v5.1c0,1.6,0.9,2.6,2.4,2.6
			C64.5,56.1,65.5,55.1,65.5,53.5"/>
		<path d="M68.4,56.1l0.5-0.8c0.9,0.6,1.8,0.8,2.6,0.8c1.3,0,1.9-0.6,1.9-1.5c0-0.6-0.5-1.2-1.3-1.4l-1.8-0.5
			c-1.2-0.4-1.6-1.2-1.6-2.2c0-1.3,1.1-2.2,2.7-2.2c1,0,1.8,0.2,2.5,0.6l-0.4,0.8c-0.7-0.3-1.4-0.5-2.1-0.5c-1,0-1.7,0.4-1.7,1.3
			c0,0.6,0.4,1.1,1.1,1.3l1.7,0.5c1.3,0.4,2.1,1.2,2.1,2.4c0,1.5-1.1,2.4-2.9,2.4C70.5,57,69.4,56.8,68.4,56.1"/>
		<path d="M76.5,56.9v-8.5h5.1v0.9h-4.1v2.8h3.2L80.5,53h-3v3H81c0-0.2,0.1-0.5,0.2-0.8c0.4,0.1,0.6,0.2,0.9,0.2
			c-0.1,0.6-0.2,0.9-0.3,1.5H76.5z"/>
		<path d="M89.8,53.5v-5.1h1v5.1c0,2-1.3,3.5-3.4,3.5S84,55.5,84,53.5v-5.1h1v5.1c0,1.6,0.9,2.6,2.4,2.6S89.8,55.1,89.8,53.5"/>
		<polygon points="98.1,55.4 97.2,55.4 94.3,50 94.3,50 94.3,56.9 93.3,56.9 93.3,48.4 94.5,48.4 97.6,54.2 97.6,54.2 100.8,48.4 
			101.9,48.4 101.9,56.9 101,56.9 101,50 101,50 		"/>
	</g>
</g>
</svg>
